<svg id="图层_1" data-name="图层 1" xmlns="http://www.w3.org/2000/svg" viewBox="0 0 456.01 560.03"><title>icon__apple</title><path d="M380.84,297.53c0.79,84.75,74.35,113,75.16,113.31a306.49,306.49,0,0,1-38.76,79.65c-23.34,34.12-47.57,68.11-85.73,68.81C294,560,282,537.07,239.09,537.07S182.84,558.6,147.34,560c-36.84,1.39-64.89-36.89-88.42-70.88C10.82,419.59-25.93,292.64,23.42,207c24.52-42.55,68.33-69.5,115.88-70.19,36.17-.69,70.32,24.34,92.43,24.34s63.59-30.1,107.21-25.68c18.26,0.76,69.52,7.38,102.43,55.55-2.65,1.64-61.16,35.7-60.52,106.56M310.37,89.42C329.93,65.75,343.09,32.79,339.5,0,311.31,1.13,277.22,18.79,257,42.44c-18.12,21-34,54.49-29.71,86.63,31.42,2.43,63.52-16,83.08-39.66" transform="translate(0)"/></svg>