<svg id="Layer_1" data-name="Layer 1" xmlns="http://www.w3.org/2000/svg" viewBox="0 0 84.63 97.44"><defs><style>.cls-1{fill:#231f20;}</style></defs><title>icon__design</title><path class="cls-1" d="M156,149.71h84.63v97.44l-42.31-15.67L156,247.15V149.71ZM221.61,208c-0.78,0-1.65,0-2.61-.06a5.77,5.77,0,0,1-2.1-.38,3.33,3.33,0,0,1-1.63-1.53,6.08,6.08,0,0,1-.53-2.78q0-1.92.18-8t0.18-10.5a14.07,14.07,0,0,0-1.43-6.8,10,10,0,0,0-3.86-4,16.43,16.43,0,0,0-5.72-1.86,49.51,49.51,0,0,0-7-.45,30.54,30.54,0,0,0-6,.65,24.09,24.09,0,0,0-5.68,1.82A14.18,14.18,0,0,0,181.2,177a5.6,5.6,0,0,0-.05,8.08,7.06,7.06,0,0,0,5,1.58,10.16,10.16,0,0,0,3.44-.43,6.87,6.87,0,0,0,2-1.22,3.71,3.71,0,0,0,1-1.58,5.27,5.27,0,0,0,.35-1.66,9.59,9.59,0,0,0-.55-3.1,15.35,15.35,0,0,1-.67-2.39,9.67,9.67,0,0,1,1.86-1,7.4,7.4,0,0,1,2.88-.49,4.91,4.91,0,0,1,4.83,3,8.39,8.39,0,0,1,.67,2.71c0.11,1.07.16,1.93,0.16,2.59v3.76a48.56,48.56,0,0,1-7.23,2.5Q190,190.7,186.45,192a28.89,28.89,0,0,0-3.4,1.53,10.23,10.23,0,0,0-2.73,2.08,9.84,9.84,0,0,0-2,3.15,11.8,11.8,0,0,0-.71,4.34,8.83,8.83,0,0,0,3.22,7.13,11.73,11.73,0,0,0,7.78,2.69,16.57,16.57,0,0,0,8.32-1.72,15,15,0,0,0,2.65-1.61,25.9,25.9,0,0,0,2.57-2.28h0.24a7.18,7.18,0,0,0,3.09,4.1q2.27,1.43,7.08,1.43a19.25,19.25,0,0,0,5-.62,30,30,0,0,0,4.07-1.37V208ZM202,203.74a10.14,10.14,0,0,1-2.46,2.18,6.53,6.53,0,0,1-3.56.88,4.71,4.71,0,0,1-3.44-1.37,6,6,0,0,1-1.4-4.44,9.16,9.16,0,0,1,.83-4,7.62,7.62,0,0,1,2.28-2.81,17.48,17.48,0,0,1,3.54-2q2.16-1,4.37-1.71Z" transform="translate(-155.98 -149.71)"/></svg>