<svg id="Layer_1" data-name="Layer 1" xmlns="http://www.w3.org/2000/svg" viewBox="0 0 66.14 85.68"><title>icon__academy</title><path d="M281.38,231.79l-33.07,3.69v62l33.07,19.86v0.09l33.08-20V235.74Zm27.85,62.72-27.85,16.78V292.58l-16.14-7.25v0l16.15-7.14v0h0v0l16.14,7.13h0v-3.13L281.42,275h0v0h0l-16.15,7.14V279h0l14.82-6.55-3.51-1.58-11.31,5v-3.13l7.8-3.45-3.51-1.58-4.29,1.89v-3.13l0.78-.34-9.46-4.24,24.82-10.77V237.07l27.85,3.35v54.09Z" transform="translate(-248.31 -231.79)"/><polygon points="49.24 44.08 37.91 39.07 34.39 40.64 49.24 47.21 49.24 44.08"/><polygon points="49.24 37.82 44.95 35.92 41.43 37.49 49.24 40.95 49.24 37.82"/></svg>