<svg id="Layer_1" data-name="Layer 1" xmlns="http://www.w3.org/2000/svg" viewBox="0 0 91.75 106.26"><defs><style>.cls-1{fill:#dedede;}</style></defs><title>bg__stopwatch</title><path class="cls-1" d="M160.63,97.67a45.7,45.7,0,0,0-8.71-17.15l2.64-2.64a4.79,4.79,0,0,0,0-6.77,4.93,4.93,0,0,0-6.77,0l-2.64,2.64A45.85,45.85,0,0,0,136,68a46.43,46.43,0,0,0-9.34-3.29h-0.1c-1.41-.33-2.83-0.61-4.3-0.8V61h2.12a6,6,0,0,0,0-12H107.81a6.17,6.17,0,0,0-1.53.21h0A6,6,0,0,0,107.81,61h2.48v2.91A45.86,45.86,0,0,0,75.24,89a45.43,45.43,0,0,0-4.83,20.41,46,46,0,0,0,45.88,45.88,45,45,0,0,0,6.73-.5c0.23,0,.46-0.1.69-0.14A45.85,45.85,0,0,0,160.63,97.67Zm-20.39,35.71a33.75,33.75,0,0,1-15.56,8.85,35.2,35.2,0,0,1-6.18.91c-0.3,0-.58.07-0.88,0.07-0.45,0-.9.09-1.35,0.09a34.55,34.55,0,0,1-3.7-.21,33.88,33.88,0,0,1-30.2-33.69c0-.72.06-1.42,0.1-2.12a33.64,33.64,0,0,1,9.83-21.85c0.73-.73,1.5-1.42,2.28-2.07h0A33.84,33.84,0,0,1,133.15,80l0.13,0.09a34.09,34.09,0,0,1,7,5.32c0.49,0.5.94,1,1.4,1.55L141.7,87a35,35,0,0,1,2.55,3.35c0.5,0.75,1,1.51,1.45,2.29a33.53,33.53,0,0,1,4.43,15.72c0,0.33,0,.66,0,1A33.68,33.68,0,0,1,140.25,133.38Z" transform="translate(-70.4 -49.03)"/></svg>
